{"title":"The Dilemma 2011 XViD PPVRIP DTRG - SAFCuk009","uid":6306175,"size":1147324788,"categoryP":"video","categoryS":"movies","magnet":"?xt=urn:btih:0d367c6a329a3cfcab5c4d02f401bf28de5a990a&amp;dn=The+Dilemma+2011+XViD+PPVRIP+DTRG+-+SAFCuk009&amp;tr=udp%3A%2F%2Ftracker.openbittorrent.com%3A80&amp;tr=udp%3A%2F%2Fopen.demonii.com%3A1337&amp;tr=udp%3A%2F%2Ftracker.coppersurfer.tk%3A6969&amp;tr=udp%3A%2F%2Fexodus.desync.com%3A6969","seeders":0,"leechers":0,"uploader":"SAFCukO09","files":3,"time":1302342940,"description":"[center][img]http://img822.imageshack.us/img822/6163/safcuk009dilemma.jpg[/img]\n\n\n[img]http://leetleech.org/images/48874973695367351744.png[/img]\n\n\nFormat                           : AVI\nFormat/Info                      : Audio Video Interleave\nFile size                        : 1.07 GiB\nDuration                         : 1h 50mn\nOverall bit rate                 : 1 385 Kbps\nWriting library                  : VirtualDub build 32839/release\n\nVideo\nID                               : 0\nFormat                           : MPEG-4 Visual\nFormat profile                   : Advanced Simple@L5\nFormat settings, BVOP            : Yes\nFormat settings, QPel            : No\nFormat settings, GMC             : No warppoints\nFormat settings, Matrix          : Custom\nCodec ID                         : XVID\nCodec ID/Hint                    : XviD\nDuration                         : 1h 50mn\nBit rate                         : 1 244 Kbps\nWidth                            : 640 pixels\nHeight                           : 480 pixels\nDisplay aspect ratio             : 4:3\nFrame rate                       : 29.970 fps\nColor space                      : YUV\nChroma subsampling               : 4:2:0\nBit depth                        : 8 bits\nScan type                        : Progressive\nBits/(Pixel*Frame)               : 0.135\nStream size                      : 983 MiB (90%)\nWriting library                  : XviD 1.2.1 (UTC 2008-12-04)\n\nAudio\nID                               : 1\nFormat                           : MPEG Audio\nFormat version                   : Version 1\nFormat profile                   : Layer 3\nMode                             : Joint stereo\nMode extension                   : MS Stereo\nCodec ID                         : 55\nCodec ID/Hint                    : MP3\nDuration                         : 1h 50mn\nBit rate mode                    : Constant\nBit rate                         : 128 Kbps\nChannel(s)                       : 2 channels\nSampling rate                    : 44.1 KHz\nStream size                      : 101 MiB (9%)\nAlignment                        : Aligned on interleaves\nInterleave, duration             : 26 ms (0.78 video frame)\nInterleave, preload duration     : 522 ms\nWriting library                  : LAME3.98.2\n\n\n\n &lt;a href=&quot;\nhttp://www.imdb.com/title/tt1578275/&quot; rel=&quot;nofollow&quot; target=&quot;_NEW&quot;&gt;\nhttp://www.imdb.com/title/tt1578275/&lt;/a&gt;\n\n\n\n\n[IMG]http://leetleech.org/images/89524873606771859129.png[/IMG]\n\n\nStoryline\n\nA man finds out that what you don't say to a friend is just as important as what you do is this story of how far you can bend a brotherly bond before it snaps. Since college, confirmed bachelor Ronny (Vaughn) and happily married Nick (James) have been through thick and thin. Now partners in an auto design firm, the two pals are vying to land a dream project that would launch their company. Ronny's girlfriend, Beth (Connelly), and Nick's wife, Geneva (Ryder), are by their sides. But Ronny's world is turned upside down when he inadvertently sees Geneva out with another man and makes it his mission to get answers. As the amateur investigation dissolves into mayhem, he learns that Nick has a few secrets of his own. Now, with the clock ticking and pressure mounting on the biggest presentation of their careers, Ronny must decide what will happen if he reveals the truth to his best friend. \n\n\n\n[img]http://leetleech.org/images/95521316153253938506.png[/img]\n\n\n\n\n[img]http://img534.imageshack.us/img534/1871/vlcsnap2011040906h30m00.png[/img]\n\n[img]http://img860.imageshack.us/img860/9582/vlcsnap2011040906h35m15.png[/img]\n\n[img]http://img853.imageshack.us/img853/7943/vlcsnap2011040908h18m05.png[/img]\n\n\n\nVideo and Audio \n\nIFLiX ............ Thanks \n\nNever sure whether to bother with these ppvs means a rip is just round the corner but here goes\n\nDeinterlaced,denoise,slight smoother and i mean slight .cropped borders and slight resize\n\nEnjoy !\n\n\nGreetz to Imagine ,Flawl3ss,DiLLoN,BDK,NOiR,TOXiCiNK,THC,Ez,Rx,Boobyblue\n\n\n\n[img]http://img411.imageshack.us/img411/6898/sig1n.jpg[/img]\n\n\n\n\n\n","torrent":{"xt":"urn:btih:0d367c6a329a3cfcab5c4d02f401bf28de5a990a","amp;dn":"The+Dilemma+2011+XViD+PPVRIP+DTRG+-+SAFCuk009","amp;tr":["udp%3A%2F%2Ftracker.openbittorrent.com%3A80","udp%3A%2F%2Fopen.demonii.com%3A1337","udp%3A%2F%2Ftracker.coppersurfer.tk%3A6969","udp%3A%2F%2Fexodus.desync.com%3A6969"],"infoHash":"0d367c6a329a3cfcab5c4d02f401bf28de5a990a","infoHashBuffer":{"type":"Buffer","data":[13,54,124,106,50,154,60,252,171,92,77,2,244,1,191,40,222,90,153,10]},"announce":[],"urlList":[]}}